name D:\school\WTK\thesis\model\3dpredictsim\Results\batch_windlass\Pog_s1_tmt_aCst_d00_k500_WL10_ig24_pas.mot
datacolumns 128
datarows 4
range 1.60929273 1.64147859
endheader
time	pelvis_tilt	pelvis_list	pelvis_rotation	pelvis_tx	pelvis_ty	pelvis_tz	hip_flexion_l	hip_adduction_l	hip_rotation_l	hip_flexion_r	hip_adduction_r	hip_rotation_r	knee_angle_l	knee_angle_r	ankle_angle_l	ankle_angle_r	subtalar_angle_l	subtalar_angle_r	tmt_angle_l	tmt_angle_r	mtp_angle_l	mtp_angle_r	lumbar_extension	lumbar_bending	lumbar_rotation	arm_flex_l	arm_add_l	arm_rot_l	arm_flex_r	arm_add_r	arm_rot_r	elbow_flex_l	elbow_flex_r	pro_sup_l	pro_sup_r	glut_med1_l/activation	glut_med2_l/activation	glut_med3_l/activation	glut_min1_l/activation	glut_min2_l/activation	glut_min3_l/activation	semimem_l/activation	semiten_l/activation	bifemlh_l/activation	bifemsh_l/activation	sar_l/activation	add_long_l/activation	add_brev_l/activation	add_mag1_l/activation	add_mag2_l/activation	add_mag3_l/activation	tfl_l/activation	pect_l/activation	grac_l/activation	glut_max1_l/activation	glut_max2_l/activation	glut_max3_l/activation	iliacus_l/activation	psoas_l/activation	quad_fem_l/activation	gem_l/activation	peri_l/activation	rect_fem_l/activation	vas_med_l/activation	vas_int_l/activation	vas_lat_l/activation	med_gas_l/activation	lat_gas_l/activation	soleus_l/activation	tib_post_l/activation	flex_dig_l/activation	flex_hal_l/activation	tib_ant_l/activation	per_brev_l/activation	per_long_l/activation	per_tert_l/activation	ext_dig_l/activation	ext_hal_l/activation	ercspn_l/activation	intobl_l/activation	extobl_l/activation	glut_med1_r/activation	glut_med2_r/activation	glut_med3_r/activation	glut_min1_r/activation	glut_min2_r/activation	glut_min3_r/activation	semimem_r/activation	semiten_r/activation	bifemlh_r/activation	bifemsh_r/activation	sar_r/activation	add_long_r/activation	add_brev_r/activation	add_mag1_r/activation	add_mag2_r/activation	add_mag3_r/activation	tfl_r/activation	pect_r/activation	grac_r/activation	glut_max1_r/activation	glut_max2_r/activation	glut_max3_r/activation	iliacus_r/activation	psoas_r/activation	quad_fem_r/activation	gem_r/activation	peri_r/activation	rect_fem_r/activation	vas_med_r/activation	vas_int_r/activation	vas_lat_r/activation	med_gas_r/activation	lat_gas_r/activation	soleus_r/activation	tib_post_r/activation	flex_dig_r/activation	flex_hal_r/activation	tib_ant_r/activation	per_brev_r/activation	per_long_r/activation	per_tert_r/activation	ext_dig_r/activation	ext_hal_r/activation	ercspn_r/activation	intobl_r/activation	extobl_r/activation	
          1.60929273	         -2.92004790	          1.38304775	         -6.30503420	          2.01161592	          0.85495570	          0.00323894	         32.19453015	          2.39044372	         -3.00757414	        -18.39792261	         -1.32316904	          8.82809441	        -19.78316437	        -10.00324480	         -1.83755100	         -2.68349338	         -4.03087048	         11.75596627	         -0.03449852	         -0.38629621	          0.91610551	         26.41692984	         -0.99785372	          0.28423149	          1.77173916	         -8.50263490	        -13.64037989	         10.40007482	          5.58722531	        -13.46902575	         16.85205349	         16.07030648	         33.15341699	         86.51662706	         86.51662706	          0.05894050	          0.05894011	          0.05000144	          0.05894019	          0.05894000	          0.05893872	          0.05894104	          0.05894122	          0.28378377	          0.05598298	          0.05000127	          0.13416119	          0.22259889	          0.12476231	          0.16936865	          0.10084863	          0.05000157	          0.05040241	          0.15341480	          0.05001348	          0.11032375	          0.13233973	          0.06637360	          0.06148036	          0.32222093	          0.05571309	          0.05000233	          0.05000014	          0.10736915	          0.11898097	          0.10039081	          0.05894055	          0.05894058	          0.05894051	          0.05000009	          0.05000197	          0.05000946	          0.41290961	          0.28942754	          0.15815388	          0.29166466	          0.56599015	          0.09944952	          0.05000020	          0.10939282	          0.10370104	          0.22027978	          0.08190364	          0.05000011	          0.26860333	          0.17503341	          0.08639268	          0.05000417	          0.05000057	          0.05000043	          0.06776741	          0.09125073	          0.17341019	          0.05270445	          0.05000372	          0.05000681	          0.05000283	          0.29835689	          0.12149369	          0.05000144	          0.05000501	          0.05000309	          0.05000255	          0.37662869	          0.58551373	          0.05000032	          0.05000078	          0.05000021	          0.26360716	          0.12683057	          0.05003110	          0.08321353	          0.28581568	          0.36536412	          0.25422602	          0.20320668	          0.20728714	          0.27825894	          0.05000003	          0.08523659	          0.14673860	          0.05000032	          0.05000008	          0.05000025	          0.05000009	          0.05000015	          0.05000449	
          1.62002135	         -2.90662807	          1.52291239	         -6.57469119	          2.02820260	          0.85388933	          0.00303794	         31.65611800	          2.88585457	         -2.75127314	        -18.06518922	         -1.66939021	          8.62279260	        -20.05422940	        -12.16589298	         -2.12759658	         -3.61176342	         -4.80249944	         12.88134557	         -0.07610044	         -1.06994183	          1.06273082	         27.42073250	         -0.77524254	          0.01047597	          1.83562291	         -9.54270768	        -13.63174836	         10.21240662	          5.30199825	        -13.49594920	         17.13626798	         15.97050987	         34.13376709	         86.51662706	         86.51662706	          0.05000006	          0.05000013	          0.05000375	          0.05000012	          0.05000015	          0.05000020	          0.05000050	          0.05000080	          0.24073753	          0.05893941	          0.05894296	          0.11381236	          0.19262811	          0.38666162	          0.24524216	          0.08555156	          0.05000043	          0.06356222	          0.13083702	          0.05000147	          0.11620704	          0.14421430	          0.06947953	          0.06947989	          0.60484899	          0.13245557	          0.06556343	          0.06947966	          0.20909200	          0.21360677	          0.18469392	          0.05000004	          0.05000007	          0.05000000	          0.05000015	          0.05001955	          0.05000057	          0.59304148	          0.24552518	          0.13416402	          0.56008941	          0.64540217	          0.34156254	          0.05000003	          0.09279936	          0.08797095	          0.18686631	          0.06948000	          0.05492178	          0.22785993	          0.14848326	          0.07328817	          0.05206586	          0.05000061	          0.05000098	          0.05748808	          0.07740955	          0.24322831	          0.19095264	          0.17274275	          0.05003237	          0.05000794	          0.25310103	          0.10310359	          0.05001295	          0.05000423	          0.05000258	          0.05000276	          0.31949905	          0.49784401	          0.05000185	          0.05896413	          0.05894098	          0.22362143	          0.10759540	          0.15814996	          0.12887294	          0.24246114	          0.30994313	          0.21566322	          0.17238293	          0.17584469	          0.23605086	          0.05886193	          0.07230742	          0.12448034	          0.05000056	          0.09763023	          0.05000120	          0.05000007	          0.06948146	          0.06288277	
          1.63074997	         -2.88895965	          1.67829716	         -6.81567619	          2.04502593	          0.85268186	          0.00285200	         30.95910586	          3.34157840	         -2.40574533	        -17.64271159	         -2.01106845	          8.40397631	        -20.72807058	        -14.48467755	         -2.00766241	         -4.62911332	         -5.63195451	         13.92772219	         -0.22894735	         -1.71721080	          1.12167374	         28.03161582	         -0.53369648	         -0.28597866	          1.88718991	        -10.58090806	        -13.63453580	         10.09823631	          4.93485260	        -13.52899854	         17.33444373	         15.86724625	         35.13464098	         86.51662706	         86.51662706	          0.32423936	          0.31269705	          0.29926966	          0.20625367	          0.05000386	          0.28577813	          0.08584166	          0.05000151	          0.20422090	          0.05000015	          0.05000231	          0.09654884	          0.24713559	          0.32801035	          0.23138043	          0.14976116	          0.05000078	          0.06948696	          0.12888794	          0.05000039	          0.18261294	          0.15553167	          0.05894054	          0.05894076	          0.51310127	          0.11236396	          0.15564658	          0.05894053	          0.24423090	          0.25545111	          0.22004995	          0.06110083	          0.05998286	          0.06622692	          0.07502227	          0.05000052	          0.05000141	          0.50308480	          0.20828226	          0.11381312	          0.47513122	          0.54750315	          0.28975217	          0.05000013	          0.07872301	          0.07462691	          0.23980710	          0.05894088	          0.05000055	          0.19329691	          0.12596043	          0.06217140	          0.07159009	          0.05000157	          0.05000317	          0.05000015	          0.06566784	          0.20633477	          0.32399815	          0.14654059	          0.06946433	          0.09476115	          0.27244560	          0.08746702	          0.05000545	          0.05891275	          0.05893974	          0.05894146	          0.27103524	          0.45852067	          0.05894000	          0.05002135	          0.05000050	          0.18970097	          0.09127477	          0.13416079	          0.10932471	          0.20568292	          0.26292878	          0.18294990	          0.14623473	          0.14917157	          0.20024517	          0.15602206	          0.15544207	          0.15769723	          0.05000083	          0.21669158	          0.14255308	          0.07950934	          0.05894204	          0.05334454	
          1.64147859	         -2.86996231	          1.82682990	         -7.02531647	          2.06186604	          0.85143298	          0.00266164	         30.05501157	          3.76014593	         -2.04552822	        -17.09929431	         -2.32304977	          8.17988676	        -21.17741000	        -16.99369529	         -2.04018860	         -5.68674621	         -6.46036259	         14.87477281	         -0.30463228	         -2.19334571	          1.15332843	         27.87062983	         -0.29348047	         -0.57513809	          1.92899193	        -11.56616018	        -13.63977657	         10.07024049	          4.52438006	        -13.57146115	         17.46930617	         15.73110248	         36.12848345	         86.51662706	         86.51662706	          0.42142105	          0.47895617	          0.50231183	          0.27948466	          0.33547356	          0.33217475	          0.07406628	          0.11333932	          0.17324326	          0.06948039	          0.05000204	          0.08190370	          0.20964839	          0.27825575	          0.21259222	          0.17391473	          0.05000043	          0.05894748	          0.10933941	          0.27622582	          0.24169485	          0.17531467	          0.05000021	          0.05000031	          0.43527055	          0.09532017	          0.13203843	          0.05000007	          0.30279401	          0.32312005	          0.27549088	          0.05183268	          0.05088434	          0.05618117	          0.16676268	          0.05894724	          0.05005768	          0.59590023	          0.17668858	          0.09654917	          0.40306015	          0.52577027	          0.31777051	          0.06778700	          0.06948030	          0.06330698	          0.20343176	          0.05000043	          0.05000007	          0.17454170	          0.10685410	          0.05274097	          0.09783917	          0.05000160	          0.05000120	          0.05000131	          0.05896132	          0.21120219	          0.27485218	          0.12431260	          0.05892841	          0.08038761	          0.30199808	          0.08188436	          0.05000133	          0.05000143	          0.05000121	          0.05000143	          0.22992280	          0.41243033	          0.05000012	          0.05000056	          0.05000037	          0.16092582	          0.07742965	          0.11381041	          0.09274163	          0.17448349	          0.22304592	          0.15519877	          0.12405298	          0.12654457	          0.16987105	          0.19106276	          0.13544641	          0.13377720	          0.19527592	          0.24910109	          0.12093032	          0.11016487	          0.05000130	          0.05000008	
